<svg xmlns="http://www.w3.org/2000/svg" width="24" height="24" viewBox="0 0 48 48">
  <g>
    <path fill="#4285F4" d="M44.5 20H24v8.5h11.7C34.1 33.1 29.6 36 24 36c-6.6 0-12-5.4-12-12s5.4-12 12-12c3.1 0 5.9 1.1 8.1 2.9l6.4-6.4C34.5 5.1 29.5 3 24 3 12.4 3 3 12.4 3 24s9.4 21 21 21c10.5 0 20-7.5 20-21 0-1.3-.1-2.7-.3-4z"/>
    <path fill="#34A853" d="M6.3 14.7l7 5.1C15.5 16.1 19.4 13 24 13c3.1 0 5.9 1.1 8.1 2.9l6.4-6.4C34.5 5.1 29.5 3 24 3c-7.2 0-13.4 4.1-16.7 10.1z"/>
    <path fill="#FBBC05" d="M24 45c5.5 0 10.5-1.8 14.4-4.9l-6.7-5.5C29.6 36 24 36 24 36c-5.6 0-10.1-2.9-12.7-7.1l-7 5.4C7.6 41.1 15.1 45 24 45z"/>
    <path fill="#EA4335" d="M44.5 20H24v8.5h11.7c-1.6 4.1-6.1 7-11.7 7-5.6 0-10.1-2.9-12.7-7.1l-7 5.4C7.6 41.1 15.1 45 24 45c10.5 0 20-7.5 20-21 0-1.3-.1-2.7-.3-4z"/>
  </g>
</svg> 